<?xml version="1.0" encoding="UTF-8"?><svg xmlns="http://www.w3.org/2000/svg" xmlns:xlink="http://www.w3.org/1999/xlink" fill-opacity="1" color-rendering="auto" color-interpolation="auto" text-rendering="auto" stroke="black" stroke-linecap="square" width="1105" stroke-miterlimit="10" shape-rendering="auto" stroke-opacity="1" fill="black" stroke-dasharray="none" font-weight="normal" stroke-width="1" height="706" font-family="'Dialog'" font-style="normal" stroke-linejoin="miter" font-size="12px" stroke-dashoffset="0" image-rendering="auto">
  <!--Generated by ySVG 2.6-->
  <defs id="genericDefs"/>
  <g>
    <g fill="white" text-rendering="geometricPrecision" shape-rendering="geometricPrecision" transform="scale(0.8,0.8) translate(475,42)" stroke="white">
      <rect x="-475" width="1382" height="883" y="-42" clip-path="url(#clipPath2)" stroke="none"/>
    </g>
    <g text-rendering="geometricPrecision" shape-rendering="geometricPrecision" transform="matrix(1.1794,0,0,1.1618,633.4213,285.6)">
      <g clip-path="url(#clipPath3)">
        <svg xmlns:svg="http://www.w3.org/2000/svg" xmlns:sodipodi="http://sodipodi.sourceforge.net/DTD/sodipodi-0.dtd" xmlns:inkscape="http://www.inkscape.org/namespaces/inkscape" xmlns:dc="http://purl.org/dc/elements/1.1/" xmlns:cc="http://web.resource.org/cc/" xmlns:rdf="http://www.w3.org/1999/02/22-rdf-syntax-ns#" opacity="1" writing-mode="lr-tb" stop-color="rgb(0, 0, 0)" shape-rendering="auto" glyph-orientation-horizontal="0deg" color-profile="auto" lighting-color="rgb(255, 255, 255)" color="rgb(0, 0, 0)" font-weight="400" alignment-baseline="auto" font-style="normal" version="1.0" color-interpolation-filters="linearrgb" text-anchor="start" stroke-linecap="butt" color-interpolation="srgb" font-variant="normal" word-spacing="normal" fill-opacity="1" text-rendering="auto" clip-path="none" text-decoration="none" letter-spacing="normal" glyph-orientation-vertical="auto" display="inline" font-size-adjust="none" overflow="hidden" fill="rgb(0, 0, 0)" font-stretch="normal" stroke-dasharray="none" inkscape:version="0.45.1" id="svg1.svg2" stroke-miterlimit="4" stop-opacity="1" color-rendering="auto" font-size="12" sodipodi:docbase="C:\Daten\alberts\projects\yfx" pointer-events="visiblepainted" mask="none" direction="ltr" baseline-shift="baseline" sodipodi:docname="uml_actor.svg" enable-background="accumulate" fill-rule="nonzero" image-rendering="auto" stroke-dashoffset="0" inkscape:output_extension="org.inkscape.output.svg.inkscape" marker-end="none" width="41" clip="auto" cursor="auto" stroke="none" filter="none" visibility="visible" kerning="auto" stroke-width="1" font-family="&quot;Arial&quot;,&quot;Helvetica&quot;,sans-serif" flood-opacity="1" clip-rule="nonzero" src="none" height="68.997391" unicode-bidi="normal" sodipodi:version="0.32" stroke-linejoin="miter" stroke-opacity="1" flood-color="rgb(0, 0, 0)" dominant-baseline="auto" marker-start="none" marker-mid="none">
            
          <defs id="svg1.defs4">
            <clipPath clipPathUnits="userSpaceOnUse" id="clipPath1">
              <path d="M0 0 L1105 0 L1105 706 L0 706 L0 0 Z"/>
            </clipPath>
            <clipPath clipPathUnits="userSpaceOnUse" id="clipPath2">
              <path d="M-475 -42 L906.25 -42 L906.25 840.5 L-475 840.5 L-475 -42 Z"/>
            </clipPath>
            <clipPath clipPathUnits="userSpaceOnUse" id="clipPath3">
              <path d="M-537.0497 -245.8156 L399.8305 -245.8156 L399.8305 361.8378 L-537.0497 361.8378 L-537.0497 -245.8156 Z"/>
            </clipPath>
            <clipPath clipPathUnits="userSpaceOnUse" id="clipPath4">
              <path d="M-239.4525 -245.8156 L697.4277 -245.8156 L697.4277 361.8378 L-239.4525 361.8378 L-239.4525 -245.8156 Z"/>
            </clipPath>
          </defs>
            
  
          <metadata id="svg1.metadata7">
    
  </metadata>
            
          <g inkscape:groupmode="layer" id="svg1.layer1" transform="translate(-29.5,-42.959476)" inkscape:label="Ebene 1">
                
            <a id="svg1.a3142" transform="matrix(1.0873906,0,0,1,-4.4741999,0)">
                    
              <path transform="translate(11.586889,5.2908993)" style="fill:none;fill-rule:evenodd;stroke:#000000;stroke-width:1px;stroke-linecap:butt;stroke-linejoin:miter;stroke-opacity:1" sodipodi:cx="38.509369" sodipodi:cy="47.36993" sodipodi:rx="8.5197716" id="svg1.path2160" d="M 47.02914 47.36993 A 8.5197716 9.2013531 0 1 1  29.989597,47.36993 A 8.5197716 9.2013531 0 1 1  47.02914 47.36993 z" sodipodi:ry="9.2013531" sodipodi:type="arc"/>
                  
            </a>
                
            <path style="fill:none" sodipodi:cx="43.962021" sodipodi:cy="48.392303" d="M 47.71072 48.392303 A 3.7486994 0 0 1 1  40.213321,48.392303 A 3.7486994 0 0 1 1  47.71072 48.392303 z" id="svg1.path3134" sodipodi:rx="3.7486994" sodipodi:ry="0" sodipodi:type="arc"/>
                
            <path style="fill:none;fill-rule:evenodd;stroke:#000000;stroke-width:1.24319649px;stroke-linecap:butt;stroke-linejoin:miter;stroke-opacity:1" d="M 50,61.33709 C 50,91.363211 50,92.247838 50,92.247838" id="svg1.path3136"/>
                
            <path style="fill:none;fill-rule:evenodd;stroke:#000000;stroke-width:1px;stroke-linecap:butt;stroke-linejoin:miter;stroke-opacity:1" d="M 69.760668,72.362183 C 69.760668,72.362183 69.760668,72.362183 50.239332,72.362183 C 30.239332,72.362183 30.239332,72.362183 30.239332,72.362183 L 30.239332,72.362183" id="svg1.path3138"/>
                
            <path style="fill:none;fill-rule:evenodd;stroke:#000000;stroke-width:1px;stroke-linecap:butt;stroke-linejoin:miter;stroke-opacity:1" d="M 30,111.45687 C 30,111.45687 30,111.45687 50,92.013532 C 70,111.45687 70,111.45687 70,111.45687" id="svg1.path3140"/>
              
          </g>
          
        </svg>
      </g>
    </g>
    <g font-size="13px" stroke-linecap="butt" transform="matrix(0.8,0,0,0.8,380,33.6)" text-rendering="geometricPrecision" font-family="sans-serif" shape-rendering="geometricPrecision" stroke-miterlimit="1.45">
      <text x="296.2283" xml:space="preserve" y="434.0698" clip-path="url(#clipPath2)" stroke="none">Авторизованный</text>
    </g>
    <g font-size="13px" stroke-linecap="butt" transform="matrix(0.8,0,0,0.8,380,33.6)" text-rendering="geometricPrecision" font-family="sans-serif" shape-rendering="geometricPrecision" stroke-miterlimit="1.45">
      <text x="305.2515" xml:space="preserve" y="449.9961" clip-path="url(#clipPath2)" stroke="none">пользователь</text>
    </g>
    <g fill="white" text-rendering="geometricPrecision" shape-rendering="geometricPrecision" transform="matrix(0.8,0,0,0.8,380,33.6)" stroke="white">
      <ellipse rx="64.375" ry="30.625" clip-path="url(#clipPath2)" cx="347" cy="169.5" stroke="none"/>
    </g>
    <g font-size="13px" stroke-linecap="butt" transform="matrix(0.8,0,0,0.8,380,33.6)" text-rendering="geometricPrecision" font-family="sans-serif" shape-rendering="geometricPrecision" stroke-miterlimit="1.45">
      <text x="320.6763" xml:space="preserve" y="166.6436" clip-path="url(#clipPath2)" stroke="none">Выбрать</text>
      <text x="302.8933" xml:space="preserve" y="182.5698" clip-path="url(#clipPath2)" stroke="none">конфигурацию</text>
      <ellipse rx="64.375" fill="none" ry="30.625" clip-path="url(#clipPath2)" cx="347" cy="169.5"/>
    </g>
    <g fill="white" text-rendering="geometricPrecision" shape-rendering="geometricPrecision" transform="matrix(0.8,0,0,0.8,380,33.6)" stroke="white">
      <ellipse rx="64.375" ry="30.625" clip-path="url(#clipPath2)" cx="636.125" cy="333.25" stroke="none"/>
    </g>
    <g font-size="13px" stroke-linecap="butt" transform="matrix(0.8,0,0,0.8,380,33.6)" text-rendering="geometricPrecision" font-family="sans-serif" shape-rendering="geometricPrecision" stroke-miterlimit="1.45">
      <text x="589.5078" xml:space="preserve" y="338.3567" clip-path="url(#clipPath2)" stroke="none">Ввести шаблон</text>
      <ellipse rx="64.375" fill="none" ry="30.625" clip-path="url(#clipPath2)" cx="636.125" cy="333.25"/>
    </g>
    <g fill="white" text-rendering="geometricPrecision" shape-rendering="geometricPrecision" transform="matrix(0.8,0,0,0.8,380,33.6)" stroke="white">
      <ellipse rx="64.375" ry="30.625" clip-path="url(#clipPath2)" cx="545.125" cy="226" stroke="none"/>
    </g>
    <g font-size="13px" stroke-linecap="butt" transform="matrix(0.8,0,0,0.8,380,33.6)" text-rendering="geometricPrecision" font-family="sans-serif" shape-rendering="geometricPrecision" stroke-miterlimit="1.45">
      <text x="492.4299" xml:space="preserve" y="223.1436" clip-path="url(#clipPath2)" stroke="none">Сконвертировать</text>
      <text x="524.3396" xml:space="preserve" y="239.0698" clip-path="url(#clipPath2)" stroke="none">шрифт</text>
      <ellipse rx="64.375" fill="none" ry="30.625" clip-path="url(#clipPath2)" cx="545.125" cy="226"/>
    </g>
    <g fill="white" text-rendering="geometricPrecision" shape-rendering="geometricPrecision" transform="matrix(0.8,0,0,0.8,380,33.6)" stroke="white">
      <ellipse rx="64.375" ry="30.625" clip-path="url(#clipPath2)" cx="602.125" cy="464.3125" stroke="none"/>
    </g>
    <g font-size="13px" stroke-linecap="butt" transform="matrix(0.8,0,0,0.8,380,33.6)" text-rendering="geometricPrecision" font-family="sans-serif" shape-rendering="geometricPrecision" stroke-miterlimit="1.45">
      <text x="553.21" xml:space="preserve" y="469.4192" clip-path="url(#clipPath2)" stroke="none">Выбрать шрифт</text>
      <ellipse rx="64.375" fill="none" ry="30.625" clip-path="url(#clipPath2)" cx="602.125" cy="464.3125"/>
    </g>
    <g fill="white" text-rendering="geometricPrecision" shape-rendering="geometricPrecision" transform="matrix(0.8,0,0,0.8,380,33.6)" stroke="white">
      <ellipse rx="64.375" ry="30.625" clip-path="url(#clipPath2)" cx="158.375" cy="226" stroke="none"/>
    </g>
    <g font-size="13px" stroke-linecap="butt" transform="matrix(0.8,0,0,0.8,380,33.6)" text-rendering="geometricPrecision" font-family="sans-serif" shape-rendering="geometricPrecision" stroke-miterlimit="1.45">
      <text x="128.6235" xml:space="preserve" y="215.1804" clip-path="url(#clipPath2)" stroke="none">Загрузить</text>
      <text x="116.8391" xml:space="preserve" y="231.1067" clip-path="url(#clipPath2)" stroke="none">предыдущую </text>
      <text x="118.8228" xml:space="preserve" y="247.033" clip-path="url(#clipPath2)" stroke="none">конвертацию</text>
      <ellipse rx="64.375" fill="none" ry="30.625" clip-path="url(#clipPath2)" cx="158.375" cy="226"/>
    </g>
    <g text-rendering="geometricPrecision" shape-rendering="geometricPrecision" transform="matrix(1.1794,0,0,1.1618,282.4213,285.6)">
      <g clip-path="url(#clipPath4)">
        <svg xmlns:svg="http://www.w3.org/2000/svg" xmlns:sodipodi="http://sodipodi.sourceforge.net/DTD/sodipodi-0.dtd" xmlns:inkscape="http://www.inkscape.org/namespaces/inkscape" xmlns:dc="http://purl.org/dc/elements/1.1/" xmlns:cc="http://web.resource.org/cc/" xmlns:rdf="http://www.w3.org/1999/02/22-rdf-syntax-ns#" opacity="1" writing-mode="lr-tb" stop-color="rgb(0, 0, 0)" shape-rendering="auto" glyph-orientation-horizontal="0deg" color-profile="auto" lighting-color="rgb(255, 255, 255)" color="rgb(0, 0, 0)" font-weight="400" alignment-baseline="auto" font-style="normal" version="1.0" color-interpolation-filters="linearrgb" text-anchor="start" stroke-linecap="butt" color-interpolation="srgb" font-variant="normal" word-spacing="normal" fill-opacity="1" text-rendering="auto" clip-path="none" text-decoration="none" letter-spacing="normal" glyph-orientation-vertical="auto" display="inline" font-size-adjust="none" overflow="hidden" fill="rgb(0, 0, 0)" font-stretch="normal" stroke-dasharray="none" inkscape:version="0.45.1" id="svg2.svg2" stroke-miterlimit="4" stop-opacity="1" color-rendering="auto" font-size="12" sodipodi:docbase="C:\Daten\alberts\projects\yfx" pointer-events="visiblepainted" mask="none" direction="ltr" baseline-shift="baseline" sodipodi:docname="uml_actor.svg" enable-background="accumulate" fill-rule="nonzero" image-rendering="auto" stroke-dashoffset="0" inkscape:output_extension="org.inkscape.output.svg.inkscape" marker-end="none" width="41" clip="auto" cursor="auto" stroke="none" filter="none" visibility="visible" kerning="auto" stroke-width="1" font-family="&quot;Arial&quot;,&quot;Helvetica&quot;,sans-serif" flood-opacity="1" clip-rule="nonzero" src="none" height="68.997391" unicode-bidi="normal" sodipodi:version="0.32" stroke-linejoin="miter" stroke-opacity="1" flood-color="rgb(0, 0, 0)" dominant-baseline="auto" marker-start="none" marker-mid="none">
            
          <defs id="svg2.defs4"/>
            
  
          <metadata id="svg2.metadata7">
    
  </metadata>
            
          <g inkscape:groupmode="layer" id="svg2.layer1" transform="translate(-29.5,-42.959476)" inkscape:label="Ebene 1">
                
            <a id="svg2.a3142" transform="matrix(1.0873906,0,0,1,-4.4741999,0)">
                    
              <path transform="translate(11.586889,5.2908993)" style="fill:none;fill-rule:evenodd;stroke:#000000;stroke-width:1px;stroke-linecap:butt;stroke-linejoin:miter;stroke-opacity:1" sodipodi:cx="38.509369" sodipodi:cy="47.36993" sodipodi:rx="8.5197716" id="svg2.path2160" d="M 47.02914 47.36993 A 8.5197716 9.2013531 0 1 1  29.989597,47.36993 A 8.5197716 9.2013531 0 1 1  47.02914 47.36993 z" sodipodi:ry="9.2013531" sodipodi:type="arc"/>
                  
            </a>
                
            <path style="fill:none" sodipodi:cx="43.962021" sodipodi:cy="48.392303" d="M 47.71072 48.392303 A 3.7486994 0 0 1 1  40.213321,48.392303 A 3.7486994 0 0 1 1  47.71072 48.392303 z" id="svg2.path3134" sodipodi:rx="3.7486994" sodipodi:ry="0" sodipodi:type="arc"/>
                
            <path style="fill:none;fill-rule:evenodd;stroke:#000000;stroke-width:1.24319649px;stroke-linecap:butt;stroke-linejoin:miter;stroke-opacity:1" d="M 50,61.33709 C 50,91.363211 50,92.247838 50,92.247838" id="svg2.path3136"/>
                
            <path style="fill:none;fill-rule:evenodd;stroke:#000000;stroke-width:1px;stroke-linecap:butt;stroke-linejoin:miter;stroke-opacity:1" d="M 69.760668,72.362183 C 69.760668,72.362183 69.760668,72.362183 50.239332,72.362183 C 30.239332,72.362183 30.239332,72.362183 30.239332,72.362183 L 30.239332,72.362183" id="svg2.path3138"/>
                
            <path style="fill:none;fill-rule:evenodd;stroke:#000000;stroke-width:1px;stroke-linecap:butt;stroke-linejoin:miter;stroke-opacity:1" d="M 30,111.45687 C 30,111.45687 30,111.45687 50,92.013532 C 70,111.45687 70,111.45687 70,111.45687" id="svg2.path3140"/>
              
          </g>
          
        </svg>
      </g>
    </g>
    <g font-size="13px" stroke-linecap="butt" transform="matrix(0.8,0,0,0.8,380,33.6)" text-rendering="geometricPrecision" font-family="sans-serif" shape-rendering="geometricPrecision" stroke-miterlimit="1.45">
      <text x="-134.6506" xml:space="preserve" y="434.0698" clip-path="url(#clipPath2)" stroke="none">Пользователь</text>
    </g>
    <g fill="white" text-rendering="geometricPrecision" shape-rendering="geometricPrecision" transform="matrix(0.8,0,0,0.8,380,33.6)" stroke="white">
      <ellipse rx="64.375" ry="30.625" clip-path="url(#clipPath2)" cx="-193.125" cy="216.5" stroke="none"/>
    </g>
    <g font-size="13px" stroke-linecap="butt" transform="matrix(0.8,0,0,0.8,380,33.6)" text-rendering="geometricPrecision" font-family="sans-serif" shape-rendering="geometricPrecision" stroke-miterlimit="1.45">
      <text x="-254.802" xml:space="preserve" y="221.6067" clip-path="url(#clipPath2)" stroke="none">Зарегистрироваться</text>
      <ellipse rx="64.375" fill="none" ry="30.625" clip-path="url(#clipPath2)" cx="-193.125" cy="216.5"/>
    </g>
    <g fill="white" text-rendering="geometricPrecision" shape-rendering="geometricPrecision" transform="matrix(0.8,0,0,0.8,380,33.6)" stroke="white">
      <ellipse rx="64.375" ry="30.625" clip-path="url(#clipPath2)" cx="-286.125" cy="333.25" stroke="none"/>
    </g>
    <g font-size="13px" stroke-linecap="butt" transform="matrix(0.8,0,0,0.8,380,33.6)" text-rendering="geometricPrecision" font-family="sans-serif" shape-rendering="geometricPrecision" stroke-miterlimit="1.45">
      <text x="-308.2656" xml:space="preserve" y="330.3936" clip-path="url(#clipPath2)" stroke="none">Пройти</text>
      <text x="-325.855" xml:space="preserve" y="346.3198" clip-path="url(#clipPath2)" stroke="none">авторизацию</text>
      <ellipse rx="64.375" fill="none" ry="30.625" clip-path="url(#clipPath2)" cx="-286.125" cy="333.25"/>
    </g>
    <g fill="white" text-rendering="geometricPrecision" shape-rendering="geometricPrecision" transform="matrix(0.8,0,0,0.8,380,33.6)" stroke="white">
      <ellipse rx="64.375" ry="30.625" clip-path="url(#clipPath2)" cx="110.875" cy="345.625" stroke="none"/>
    </g>
    <g font-size="13px" stroke-linecap="butt" transform="matrix(0.8,0,0,0.8,380,33.6)" text-rendering="geometricPrecision" font-family="sans-serif" shape-rendering="geometricPrecision" stroke-miterlimit="1.45">
      <text x="78.502" xml:space="preserve" y="334.8054" clip-path="url(#clipPath2)" stroke="none">Сохранить</text>
      <text x="61.4617" xml:space="preserve" y="350.7317" clip-path="url(#clipPath2)" stroke="none">р-т предыдущей</text>
      <text x="72.5669" xml:space="preserve" y="366.658" clip-path="url(#clipPath2)" stroke="none">конвертации</text>
      <ellipse rx="64.375" fill="none" ry="30.625" clip-path="url(#clipPath2)" cx="110.875" cy="345.625"/>
      <path fill="none" d="M347 200.125 L347 314.9659" clip-path="url(#clipPath2)"/>
      <path fill="none" d="M573.3995 340.1382 L376.9858 361.7072" clip-path="url(#clipPath2)"/>
      <path fill="none" d="M508.9962 251.3472 L377.0183 343.9398" clip-path="url(#clipPath2)"/>
      <path fill="none" d="M552.3035 444.9185 L376.9986 376.6776" clip-path="url(#clipPath2)"/>
      <path fill="none" d="M193.29 251.7293 L317.0161 342.9045" clip-path="url(#clipPath2)"/>
      <path fill="none" d="M-173.2408 245.6275 L-121.7321 321.0805" clip-path="url(#clipPath2)"/>
      <path fill="none" d="M-225.239 343.1953 L-121.7655 360.0971" clip-path="url(#clipPath2)"/>
      <path fill="none" d="M174.3133 350.8304 L317.0244 362.5404" clip-path="url(#clipPath2)"/>
    </g>
  </g>
</svg>
